<?xml version="1.0" standalone="no"?>
<!DOCTYPE svg PUBLIC "-//W3C//DTD SVG 20010904//EN"
 "http://www.w3.org/TR/2001/REC-SVG-20010904/DTD/svg10.dtd">
<svg version="1.0" xmlns="http://www.w3.org/2000/svg"
 width="500.000000pt" height="615.000000pt" viewBox="0 0 500.000000 615.000000"
 preserveAspectRatio="xMidYMid meet">

<g transform="translate(0.000000,615.000000) scale(0.100000,-0.100000)"
fill="#000000" stroke="none">
<path d="M2139 6122 c-24 -16 -63 -50 -87 -75 -55 -61 -167 -230 -234 -357
l-53 -100 -85 -36 c-47 -20 -128 -49 -180 -66 -144 -46 -142 -45 -138 -75 7
-58 42 -53 257 34 46 19 85 32 87 30 2 -2 -11 -39 -30 -83 -18 -43 -43 -109
-55 -146 l-22 -67 -57 -6 c-125 -15 -270 -57 -286 -84 -9 -13 3 -39 21 -45 9
-4 48 5 87 18 39 14 106 29 149 35 66 9 81 9 93 -4 20 -20 43 -19 51 1 5 14
17 16 82 10 199 -17 429 -80 571 -158 138 -75 128 -72 155 -54 30 20 33 56 6
80 -28 25 -380 141 -516 169 -66 14 -154 28 -197 32 l-76 7 23 66 c28 81 58
157 92 235 22 49 34 62 73 82 81 41 223 141 282 199 104 102 148 185 151 285
1 47 -2 56 -26 77 -38 32 -82 31 -138 -4z m77 -136 c-20 -68 -88 -161 -158
-215 -67 -52 -178 -124 -178 -115 0 14 75 141 132 226 64 94 122 152 172 173
43 19 52 0 32 -69z"/>
<path d="M2734 6102 c-6 -4 -23 -25 -37 -48 -24 -38 -32 -43 -128 -73 -57 -18
-127 -44 -157 -57 -48 -21 -53 -26 -50 -51 4 -37 42 -42 99 -12 48 24 169 71
169 65 0 -2 -18 -50 -41 -107 -37 -93 -109 -335 -109 -365 0 -22 -143 -144
-204 -174 -78 -40 -119 -47 -151 -26 -14 9 -25 25 -25 36 0 17 7 20 48 20 67
0 145 41 180 93 35 52 36 111 3 138 -97 79 -317 -121 -297 -270 18 -139 196
-127 382 26 l42 34 4 -70 c4 -80 24 -111 70 -111 36 0 58 11 125 62 78 59 213
230 213 269 0 41 -39 19 -97 -53 -115 -145 -214 -228 -235 -196 -37 54 63 439
173 664 l34 69 110 22 c150 30 261 38 323 24 55 -14 120 -3 142 24 18 21 -12
53 -57 61 -50 9 -375 -28 -456 -52 -16 -5 -18 -2 -12 15 11 37 -28 65 -61 43z
m-454 -628 c0 -46 -71 -99 -125 -92 l-28 3 28 33 c27 32 88 71 113 72 6 0 12
-7 12 -16z"/>
<path d="M2907 5823 c-4 -3 -7 -25 -7 -48 0 -22 -9 -58 -20 -80 -22 -44 -25
-61 -10 -70 50 -31 132 149 88 193 -13 13 -41 16 -51 5z"/>
<path d="M3119 5678 c-43 -47 -83 -132 -75 -162 3 -13 29 -49 57 -80 l51 -56
-27 -10 c-14 -5 -32 -10 -38 -10 -26 0 -116 -49 -126 -69 -33 -62 6 -121 80
-121 84 1 169 60 184 130 5 24 19 36 76 66 75 40 179 141 179 175 0 41 -30 32
-93 -28 -35 -33 -85 -72 -113 -86 l-50 -25 -57 65 c-31 35 -57 70 -57 78 0 19
43 68 74 84 49 26 45 81 -6 81 -20 0 -38 -10 -59 -32z m1 -409 c-29 -22 -79
-38 -98 -31 -21 7 0 23 60 43 60 20 74 16 38 -12z"/>
<path d="M3310 5161 c-217 -71 -373 -192 -504 -389 -142 -214 -202 -416 -195
-659 l4 -119 -44 27 c-24 15 -55 31 -70 34 -25 5 -43 36 -166 287 -86 173
-157 333 -185 416 -52 150 -55 154 -185 222 -48 25 -60 28 -83 18 -15 -6 -110
-41 -212 -78 l-185 -68 -3 -89 c-2 -48 4 -248 13 -443 9 -195 15 -453 14 -573
l-2 -218 51 -35 c29 -19 62 -39 75 -43 19 -8 9 -15 -73 -53 -139 -65 -159 -93
-210 -294 -16 -62 -36 -126 -44 -141 -20 -40 -75 -94 -164 -161 -134 -102
-162 -143 -177 -257 -4 -27 -26 -99 -50 -160 -77 -193 -80 -209 -79 -410 1
-199 15 -277 74 -404 60 -128 221 -249 395 -296 82 -22 280 -30 389 -16 396
53 893 276 1835 824 349 203 788 470 858 522 152 112 197 251 139 429 -27 80
-25 98 14 208 23 67 26 135 5 162 -14 18 -10 22 76 63 113 53 192 130 262 253
108 192 143 420 98 638 -33 156 -107 284 -205 351 -54 38 -254 117 -316 126
-141 20 -324 -101 -463 -306 -61 -89 -94 -173 -123 -309 -21 -96 -18 -99 -74
65 -29 86 -33 92 -86 128 -30 22 -61 36 -69 33 -10 -3 -16 5 -20 27 -3 18 -29
166 -58 330 l-53 297 -54 40 c-62 45 -73 46 -150 21z m40 -61 c0 -5 20 -124
45 -264 25 -141 45 -258 45 -261 0 -3 -24 -5 -52 -5 -142 -1 -256 -121 -289
-304 -34 -184 86 -284 246 -204 75 38 144 105 263 257 l18 24 54 -154 c29 -85
55 -160 58 -168 3 -9 -16 -2 -50 17 -69 40 -139 54 -199 41 -24 -6 -89 -31
-144 -57 -138 -64 -189 -67 -307 -18 -132 55 -198 46 -280 -36 -21 -21 -42
-38 -47 -38 -21 0 -36 99 -35 230 0 113 4 150 26 230 58 212 152 375 298 520
87 87 169 139 283 180 62 22 67 23 67 10z m-1381 -272 c40 -117 179 -414 322
-687 l65 -126 -49 -73 c-55 -80 -90 -106 -155 -116 -59 -9 -88 1 -102 34 l-12
28 -91 -41 c-135 -62 -205 -134 -241 -249 -6 -19 -46 -24 -105 -12 l-31 7 0
251 c0 138 -5 337 -10 441 -5 105 -11 266 -12 358 l-3 169 120 42 c66 24 147
54 180 68 33 14 65 26 71 27 7 0 30 -54 53 -121z m2567 -75 c62 -21 160 -116
197 -193 15 -30 36 -93 48 -139 19 -73 21 -104 16 -225 -3 -84 -12 -165 -21
-201 -41 -147 -154 -324 -243 -380 -72 -46 -146 -75 -160 -64 -6 6 -14 40 -18
77 -4 37 -13 86 -20 110 -13 41 -13 42 8 42 33 0 92 47 132 104 49 71 76 148
82 233 11 137 -41 207 -133 182 -46 -13 -130 -94 -157 -152 -31 -66 -50 -177
-39 -237 9 -50 9 -51 -12 -45 -11 4 -77 13 -146 20 -97 11 -128 18 -138 32
-21 28 -10 268 17 358 32 107 83 201 161 297 71 87 166 161 235 186 46 16 136
14 191 -5z m-963 -329 l47 -7 -42 -51 c-138 -168 -274 -296 -300 -280 -13 9
-4 88 19 160 21 67 76 134 135 163 46 22 68 25 141 15z m46 -458 c26 -14 74
-48 105 -76 70 -65 118 -80 247 -80 163 0 233 -24 273 -91 10 -17 24 -74 32
-126 16 -120 39 -157 123 -202 85 -45 91 -62 64 -169 l-8 -33 -34 48 c-19 26
-61 86 -94 133 -155 223 -335 347 -576 395 -111 23 -312 16 -424 -14 -214 -57
-409 -188 -588 -397 -68 -79 -125 -131 -213 -194 -37 -27 -66 -68 -66 -95 0
-13 6 -16 25 -11 17 4 27 2 30 -6 3 -7 -28 -79 -68 -159 -40 -80 -90 -192
-111 -250 -21 -57 -49 -123 -62 -146 l-25 -42 -20 20 c-33 33 -42 11 -49 -114
-6 -101 -11 -123 -50 -222 -25 -60 -84 -189 -132 -286 -69 -139 -99 -188 -142
-232 -32 -34 -63 -57 -75 -57 -20 0 -21 4 -15 54 4 35 0 94 -12 164 -17 104
-17 112 0 155 12 31 29 53 56 71 56 37 64 34 57 -19 -4 -25 -3 -45 2 -45 17 0
93 82 107 115 18 44 18 125 -1 195 -19 70 -19 134 0 196 18 59 47 93 140 166
105 83 169 156 214 246 40 79 49 112 33 112 -11 0 -52 -28 -84 -58 -17 -15
-33 -22 -44 -18 -14 5 -16 20 -12 104 3 82 8 107 32 155 40 84 74 104 201 127
107 19 179 46 208 78 20 22 167 280 167 293 0 17 -37 9 -55 -11 -10 -11 -23
-20 -28 -20 -16 0 -1 109 23 174 50 132 111 153 267 92 117 -46 213 -62 271
-47 48 13 55 28 15 33 -37 4 -41 32 -9 53 101 67 222 83 305 41z m-999 -87
c46 -20 51 -25 45 -46 -3 -14 -12 -70 -21 -126 -18 -125 -28 -158 -57 -184
-32 -30 -63 -38 -152 -38 l-80 0 -16 -50 -16 -50 -72 -1 c-81 -1 -89 -6 -123
-74 -22 -42 -26 -45 -68 -48 -54 -4 -66 -13 -74 -56 -8 -43 -25 -56 -78 -63
-43 -6 -78 -27 -78 -47 0 -6 -5 -28 -11 -49 -8 -30 -18 -41 -57 -60 -41 -19
-50 -29 -69 -77 -22 -56 -29 -61 -95 -75 -43 -8 -61 -53 -46 -109 15 -58 2
-76 -57 -76 -63 0 -81 -24 -78 -111 3 -75 -7 -89 -62 -89 -66 0 -86 -42 -55
-120 33 -84 22 -127 -42 -156 -62 -28 -74 -70 -38 -137 29 -54 25 -80 -20
-132 -22 -25 -40 -56 -40 -69 0 -23 33 -59 83 -90 29 -18 28 -36 -3 -36 -31 0
-129 87 -138 123 -9 33 -8 39 23 186 24 116 17 192 -29 310 -74 187 -55 281
79 394 81 67 105 73 105 23 0 -50 14 -51 54 -4 44 51 72 123 97 248 10 52 24
121 30 153 23 116 77 157 235 182 54 9 118 21 141 27 44 11 96 53 90 72 -2 6
-30 12 -63 14 -85 5 -94 30 -44 130 59 117 149 165 269 142 109 -20 115 -18
201 70 127 131 203 153 330 99z m1097 -219 c169 -40 272 -100 394 -226 93 -97
216 -266 258 -354 33 -69 36 -82 36 -165 0 -81 -3 -95 -30 -144 -37 -67 -107
-121 -290 -223 -71 -40 -224 -131 -340 -202 -580 -358 -807 -486 -1195 -680
-354 -176 -651 -292 -812 -317 -225 -35 -525 49 -660 186 -62 62 -117 163
-139 255 -19 74 -16 257 5 345 28 117 57 140 90 70 22 -46 20 -98 -9 -195 -14
-46 -25 -100 -25 -119 1 -85 74 -172 198 -233 49 -24 67 -38 67 -53 0 -18 -6
-20 -47 -17 -36 3 -48 0 -48 -10 0 -35 77 -80 210 -123 74 -25 102 -28 215
-29 127 -1 132 0 196 31 119 59 219 181 331 408 54 107 103 230 209 525 162
452 362 790 601 1016 86 81 213 170 295 206 150 67 336 85 490 48z"/>
<path d="M1840 4336 c0 -62 22 -332 28 -342 5 -9 18 -8 52 3 25 8 49 19 54 24
10 9 -113 338 -126 339 -5 0 -8 -11 -8 -24z"/>
<path d="M3602 3257 c-45 -48 -10 -137 53 -137 63 0 100 95 55 140 -28 28 -81
26 -108 -3z"/>
<path d="M3059 3114 c-34 -36 -34 -108 0 -135 33 -27 67 -33 102 -19 60 25 75
107 27 157 -31 33 -96 32 -129 -3z"/>
<path d="M4057 3018 c-43 -33 -40 -100 5 -132 33 -23 56 -20 89 13 34 35 37
68 8 105 -23 29 -73 36 -102 14z"/>
<path d="M3437 2900 c-78 -62 -40 -200 56 -200 54 0 107 51 107 104 0 44 -22
91 -49 106 -32 16 -86 12 -114 -10z"/>
<path d="M2820 2647 c-33 -16 -58 -68 -52 -106 11 -80 105 -110 163 -52 46 47
35 127 -22 157 -34 17 -56 18 -89 1z"/>
<path d="M2738 2160 c-69 -53 -11 -167 70 -139 54 19 69 93 27 134 -29 30 -64
32 -97 5z"/>
<path d="M2442 2103 c-7 -3 -19 -18 -28 -35 -36 -70 46 -152 107 -105 42 32
49 81 18 121 -20 25 -61 34 -97 19z"/>
<path d="M830 4646 c-162 -67 -371 -150 -465 -185 -93 -35 -214 -82 -268 -104
-85 -36 -97 -44 -93 -62 16 -56 57 -298 72 -429 l18 -148 58 -45 58 -44 125
72 c69 39 128 70 130 68 5 -6 26 -607 25 -719 -1 -52 -1 -161 -1 -242 l1 -147
60 -41 59 -40 140 99 c77 55 183 125 236 156 l97 57 -7 102 c-11 181 -35 808
-35 923 l0 113 38 19 c20 10 91 40 157 66 66 26 124 50 128 54 4 5 3 46 -3 92
-6 47 -14 149 -18 228 l-7 144 -95 68 c-52 38 -99 68 -105 68 -5 0 -143 -55
-305 -123z m335 -103 c4 -93 9 -187 9 -211 l1 -42 -105 -44 c-58 -24 -129 -53
-157 -66 l-53 -23 0 -133 c0 -134 24 -780 35 -930 l6 -82 -88 -52 c-48 -29
-101 -63 -118 -75 -55 -40 -135 -95 -139 -95 -2 0 -6 174 -9 388 -3 213 -11
485 -18 605 -12 212 -13 217 -33 211 -33 -10 -214 -98 -283 -138 -73 -42 -63
-57 -88 129 -9 66 -25 159 -34 207 l-18 87 71 30 c39 16 148 57 241 92 94 34
303 118 465 185 162 67 298 123 301 123 3 1 10 -74 14 -166z"/>
<path d="M4580 2361 c-225 -81 -433 -172 -580 -256 -47 -26 -86 -49 -88 -50
-2 -2 57 -400 63 -421 2 -8 32 -5 100 8 53 11 99 17 103 13 4 -4 8 -59 9 -123
1 -65 2 -124 2 -133 1 -8 17 -23 37 -32 22 -11 39 -28 45 -47 14 -38 34 -43
131 -35 l81 7 -7 209 -7 209 59 0 c32 0 94 3 137 7 l78 6 -7 146 c-16 359 -30
531 -44 530 -4 0 -54 -17 -112 -38z"/>
<path d="M3793 1920 c-52 -19 -174 -80 -204 -103 -14 -11 -14 -21 -2 -107 8
-53 13 -143 11 -205 -3 -98 -6 -115 -30 -156 -36 -61 -71 -83 -133 -84 -68 0
-78 20 -71 140 5 76 39 251 61 306 5 13 -9 22 -67 43 -40 15 -91 27 -112 29
-37 2 -40 0 -62 -43 -91 -180 -138 -603 -84 -760 23 -68 61 -127 101 -158 84
-65 133 -92 168 -92 32 1 40 6 71 52 19 28 52 65 73 82 35 28 46 31 100 30 34
-1 77 -5 95 -9 21 -5 37 -3 48 6 23 19 65 107 54 114 -5 3 -44 -4 -86 -15
-100 -26 -144 -26 -178 1 -46 36 -28 132 32 163 32 16 153 50 239 67 72 13 69
8 79 159 6 97 -9 436 -23 523 -6 42 -9 42 -80 17z"/>
<path d="M2606 1479 c-224 -45 -469 -298 -516 -533 -28 -141 34 -291 153 -369
265 -175 617 -25 723 307 61 192 33 390 -71 514 -55 66 -184 102 -289 81z
m-39 -379 c108 -65 14 -254 -102 -206 -43 18 -65 52 -65 101 0 47 19 79 64
106 39 24 63 24 103 -1z"/>
<path d="M4127 1297 c-18 -18 -43 -47 -57 -65 -23 -29 -33 -33 -145 -52 -127
-22 -262 -53 -308 -72 -48 -19 -48 -89 0 -96 11 -2 56 8 99 22 106 34 253 70
260 64 3 -3 -9 -30 -27 -59 -81 -138 -241 -486 -262 -570 -18 -71 -426 -389
-467 -364 -22 14 -8 74 41 174 44 90 62 115 131 180 76 72 79 77 76 115 -6 81
-83 79 -143 -3 -53 -72 -163 -299 -181 -373 -37 -152 24 -214 151 -154 60 28
186 118 274 194 62 55 64 56 58 27 -16 -71 -19 -163 -8 -198 25 -76 87 -86
196 -33 94 46 160 97 286 222 111 110 136 143 126 168 -12 32 -43 14 -132 -73
-169 -166 -312 -269 -361 -259 -82 16 38 407 237 771 73 133 157 267 168 267
3 0 44 5 91 10 47 6 168 10 270 10 172 0 191 -2 260 -25 84 -28 135 -31 185
-11 63 27 32 82 -59 107 -50 14 -461 18 -595 6 l-93 -9 16 23 c20 29 20 53 0
73 -24 25 -53 19 -87 -17z"/>
<path d="M935 1083 c-33 -19 -95 -58 -138 -86 -66 -42 -76 -53 -71 -71 12 -42
75 -152 107 -188 l32 -38 103 47 c97 44 103 49 98 73 -3 14 -15 87 -28 163
-12 75 -27 137 -33 136 -5 0 -37 -16 -70 -36z"/>
<path d="M4400 1094 c-25 -2 -82 -6 -127 -10 l-83 -6 0 -104 c0 -99 1 -104 23
-109 12 -2 52 -11 88 -19 37 -9 91 -24 120 -36 30 -11 57 -20 62 -20 4 0 6 69
5 153 -3 171 5 157 -88 151z"/>
<path d="M1568 1041 c-112 -25 -400 -120 -393 -131 12 -20 24 -357 16 -485 -4
-77 -7 -141 -6 -142 6 -10 228 -33 317 -33 187 0 328 44 411 126 89 89 63 203
-50 221 l-36 6 33 17 c50 26 118 98 136 146 21 55 14 128 -18 193 -18 35 -34
51 -72 71 -67 33 -212 38 -338 11z m120 -227 c28 -19 29 -62 3 -96 -22 -28
-116 -73 -173 -83 l-38 -7 0 95 0 96 28 4 c70 11 158 6 180 -9z m-94 -338 c44
-18 51 -32 31 -62 -18 -28 -42 -39 -108 -49 l-47 -7 0 59 c0 33 3 63 7 66 11
12 82 8 117 -7z"/>
<path d="M3603 855 c-39 -17 -127 -107 -144 -147 -14 -34 1 -58 35 -58 48 0
164 97 187 157 11 30 -4 63 -29 63 -9 -1 -31 -7 -49 -15z"/>
</g>
</svg>
